<?xml version="1.0" standalone="no"?>
<!DOCTYPE svg PUBLIC "-//W3C//DTD SVG 20010904//EN"
 "http://www.w3.org/TR/2001/REC-SVG-20010904/DTD/svg10.dtd">
<svg version="1.0" xmlns="http://www.w3.org/2000/svg"
 width="498.000000pt" height="498.000000pt" viewBox="0 0 498.000000 498.000000"
 preserveAspectRatio="xMidYMid meet">
<metadata>
Created by potrace 1.14, written by Peter Selinger 2001-2017
</metadata>
<g transform="translate(0.000000,498.000000) scale(0.100000,-0.100000)"
fill="#000000" stroke="none">
<path d="M3541 4854 c-121 -21 -205 -51 -283 -104 -81 -54 -118 -100 -118
-147 0 -38 28 -63 78 -70 36 -5 41 -9 50 -42 6 -20 26 -88 45 -151 130 -425
135 -448 147 -555 6 -60 29 -180 51 -265 33 -131 50 -177 110 -295 71 -138 83
-171 174 -475 26 -85 59 -198 75 -250 19 -63 32 -135 38 -215 5 -66 17 -142
27 -170 22 -66 76 -179 88 -184 5 -2 26 -38 46 -81 21 -43 47 -93 58 -111 12
-19 26 -59 32 -89 6 -30 34 -137 62 -237 28 -101 49 -191 47 -200 -2 -13 -13
-4 -38 32 -61 89 -107 126 -186 150 -96 29 -227 14 -326 -36 -114 -58 -217
-223 -263 -424 -31 -133 -62 -189 -138 -246 -55 -41 -184 -107 -284 -145 -38
-14 -77 -31 -88 -38 -11 -7 -53 -25 -93 -41 -81 -30 -102 -56 -74 -87 22 -26
47 -22 137 18 44 19 118 51 165 70 152 64 281 136 336 189 67 66 97 127 134
272 38 150 78 232 149 304 65 67 124 89 230 89 120 -1 190 -52 273 -201 54
-99 78 -124 108 -114 11 4 27 2 34 -5 8 -6 39 -90 71 -188 92 -287 184 -540
236 -650 l49 -102 96 0 95 0 -4 413 c-4 458 -8 494 -72 673 -20 54 -54 155
-77 223 l-40 124 31 24 c17 14 31 33 31 43 0 42 -86 160 -117 160 -13 0 -33
59 -53 156 -12 60 -51 184 -76 241 -8 17 -14 53 -14 80 0 76 -26 148 -95 263
-79 134 -101 177 -110 220 -4 19 -17 69 -30 110 -92 298 -139 477 -151 575
-30 238 -70 376 -155 548 -31 61 -69 164 -103 280 -30 100 -73 246 -96 324
l-42 142 30 26 c16 13 32 37 35 51 7 39 -11 92 -35 105 -37 20 -131 26 -207
13z"/>
<path d="M2694 3802 c-33 -22 -34 -42 -34 -1207 l0 -1156 25 -24 c29 -30 45
-31 79 -4 l26 20 0 1170 c0 1156 0 1169 -20 1189 -20 20 -56 26 -76 12z"/>
<path d="M2380 3483 c0 -6 9 -20 20 -33 11 -13 20 -20 20 -16 0 4 -9 19 -20
33 -11 14 -20 21 -20 16z"/>
<path d="M2420 3480 c-9 -6 -10 -10 -3 -10 6 0 15 5 18 10 8 12 4 12 -15 0z"/>
<path d="M2366 3455 c5 -11 10 -386 12 -834 2 -766 1 -815 -15 -835 l-18 -21
23 19 22 19 0 804 c0 441 3 803 8 803 32 -1 32 -7 30 -822 -2 -443 0 -801 4
-795 4 7 8 372 9 812 1 440 5 780 10 755 l7 -45 -3 45 c-2 25 -6 59 -10 75 -5
23 -4 26 4 15 9 -13 11 -13 11 3 0 9 -5 17 -10 17 -6 0 -13 -8 -16 -17 -3 -10
-8 -25 -11 -33 -3 -11 -12 -6 -35 20 -17 19 -27 26 -22 15z"/>
<path d="M2350 3420 c0 -5 5 -10 11 -10 5 0 7 5 4 10 -3 6 -8 10 -11 10 -2 0
-4 -4 -4 -10z"/>
<path d="M2403 3120 c0 -25 2 -35 4 -22 2 12 2 32 0 45 -2 12 -4 2 -4 -23z"/>
<path d="M4321 3104 c-19 -24 -21 -40 -21 -143 0 -130 10 -181 65 -315 66
-164 65 -167 65 157 0 274 -1 288 -20 307 -28 28 -64 25 -89 -6z"/>
<path d="M1045 3044 c-19 -14 -20 -27 -20 -444 0 -463 -2 -448 52 -465 17 -4
29 1 48 19 l25 25 0 418 c0 363 -2 422 -16 441 -18 26 -59 29 -89 6z"/>
<path d="M4650 2928 c-19 -21 -20 -34 -20 -330 l0 -309 25 -24 c13 -14 31 -25
40 -25 9 0 27 11 40 25 l25 24 0 311 c0 297 -1 311 -20 330 -26 26 -64 25 -90
-2z"/>
<path d="M2404 2720 c0 -69 1 -97 3 -62 2 34 2 90 0 125 -2 34 -3 6 -3 -63z"/>
<path d="M2403 2400 c0 -25 2 -35 4 -22 2 12 2 32 0 45 -2 12 -4 2 -4 -23z"/>
<path d="M2403 2040 c0 -47 2 -66 4 -42 2 23 2 61 0 85 -2 23 -4 4 -4 -43z"/>
<path d="M2400 1833 c-4 -39 -1 -57 11 -72 9 -11 19 -17 23 -14 3 4 6 2 6 -3
0 -6 -5 -15 -12 -22 -7 -7 -9 -12 -5 -12 4 0 18 10 30 21 12 12 17 19 10 15
-6 -3 -16 1 -21 10 -5 9 -13 15 -18 15 -5 -1 -11 25 -14 56 l-5 58 -5 -52z"/>
<path d="M2450 1833 c-3 -29 -1 -48 3 -44 5 5 7 28 5 52 l-3 44 -5 -52z"/>
<path d="M2369 1753 c-12 -15 -12 -16 5 -10 14 5 17 3 13 -8 -4 -8 -2 -17 3
-20 6 -4 10 5 10 19 0 32 -14 40 -31 19z"/>
</g>
</svg>
